<?xml version="1.0" encoding="utf-8"?>
<svg version="1.2" baseProfile="tiny" id="Layer_1" xmlns="http://www.w3.org/2000/svg" xmlns:xlink="http://www.w3.org/1999/xlink"
     x="0px" y="0px" viewBox="0 0 2564.9 2563.9" overflow="visible" xml:space="preserve">
<g id="Background">
    <path stroke="#00FF04" stroke-miterlimit="10" d="M2159,2528.5H416.9c-204.4,0-370.1-165.7-370.1-370.1V416.3
        c0-204.4,165.7-370.1,370.1-370.1H2159c204.4,0,370.1,165.7,370.1,370.1v1742.1C2529.1,2362.8,2363.4,2528.5,2159,2528.5z"/>
</g>
<g id="Orange">
    <path fill="#FF6600" stroke="#00FF04" stroke-miterlimit="10" d="M939.2,1258.5H549.5c-176.6,0-319.8-143.2-319.8-319.8V549.1
        c0-176.6,143.2-319.8,319.8-319.8h389.7c176.6,0,319.8,143.2,319.8,319.8v389.7C1259,1115.4,1115.8,1258.5,939.2,1258.5z"/>
</g>
<g id="Red">
    <path fill="#FF0000" stroke="#00FF04" stroke-miterlimit="10" d="M2027.4,1232.9h-389.7c-176.6,0-319.8-143.2-319.8-319.8V523.5
        c0-176.6,143.2-319.8,319.8-319.8h389.7c176.6,0,319.8,143.2,319.8,319.8v389.7C2347.1,1089.8,2204,1232.9,2027.4,1232.9z"/>
</g>
<g id="Green">
    <path fill="#00CC00" stroke="#00FF04" stroke-miterlimit="10" d="M2047.7,2355.5H1658c-176.6,0-319.8-143.2-319.8-319.8V1646
        c0-176.6,143.2-319.8,319.8-319.8h389.7c176.6,0,319.8,143.2,319.8,319.8v389.7C2367.4,2212.4,2224.3,2355.5,2047.7,2355.5z"/>
</g>
<g id="Blue">
    <path fill="#3300FF" stroke="#00FF04" stroke-miterlimit="10" d="M939.2,2355.5H549.5c-176.6,0-319.8-143.2-319.8-319.8V1646
        c0-176.6,143.2-319.8,319.8-319.8h389.7c176.6,0,319.8,143.2,319.8,319.8v389.7C1259,2212.4,1115.8,2355.5,939.2,2355.5z"/>
</g>
<g id="AppColor">
    <path fill="#FF2E46" d="M1003.8,2431.1l-869.4-869.4c-154.6-154.6-154.6-405.4,0-560l869.4-869.4c154.6-154.6,405.4-154.6,560,0
        l869.4,869.4c154.6,154.6,154.6,405.4,0,560l-869.4,869.4C1409.2,2585.7,1158.5,2585.7,1003.8,2431.1z"/>
</g>
<g id="Text">
    <rect x="20.1" fill="none" width="2549.3" height="2541.7"/>
    <g>
        <path fill="#FFFFFF" d="M789.8,1124.8L652.9,617.5l-138.6,507.3c-10.8,38.5-19.4,66.1-25.7,82.8c-6.4,16.8-17.4,31.8-33.2,45
            s-36.8,19.9-63,19.9c-21.2,0-38.6-4-52.3-11.8c-13.7-7.9-24.7-19-33.2-33.5c-8.5-14.4-15.4-31.5-20.8-51.4s-10.2-38.2-14.4-55.1
            L130.8,551c-8.5-33.1-12.7-58.3-12.7-75.6c0-21.9,7.7-40.4,23.1-55.4s34.5-22.5,57.2-22.5c31.2,0,52.2,10,63,30s20.2,49,28.3,87.1
            l110.9,493.9l124.2-462.1c9.2-35.4,17.5-62.3,24.8-80.8s19.2-34.4,35.8-47.9s39.1-20.2,67.6-20.2c28.9,0,51.3,7,67.3,21.1
            c16,14,27,29.3,33.2,45.9s14.4,43.8,24.8,81.9l125.3,462.1l110.9-493.9c5.4-25.8,10.5-46,15.3-60.6c4.8-14.6,13.1-27.7,24.8-39.2
            c11.8-11.5,28.8-17.3,51.1-17.3c22.3,0,41.3,7.4,56.9,22.2s23.4,33.4,23.4,55.7c0,15.8-4.2,41-12.7,75.6l-140.9,569.7
            c-9.6,38.5-17.6,66.7-24,84.6c-6.4,17.9-17.1,33.6-32.4,47s-36.7,20.2-64.4,20.2c-26.2,0-47.2-6.5-63-19.6s-26.8-27.8-32.9-44.1
            S801,1164.4,789.8,1124.8z"/>
        <path fill="#FFFFFF" d="M1642.9,991.5h-308.5c0.4,35.8,7.6,67.3,21.7,94.6s32.7,47.8,56,61.7s49,20.8,77.1,20.8
            c18.9,0,36.1-2.2,51.7-6.6s30.7-11.3,45.3-20.8c14.6-9.4,28.1-19.5,40.4-30.3c12.3-10.8,28.3-25.4,47.9-43.8
            c8.1-6.9,19.6-10.4,34.7-10.4c16.2,0,29.3,4.4,39.3,13.2c10,8.8,15,21.3,15,37.4c0,14.2-5.6,30.8-16.8,49.8
            c-11.2,19-28,37.2-50.5,54.7c-22.5,17.5-50.8,32-84.9,43.5c-34.1,11.5-73.3,17.3-117.5,17.3c-101.3,0-180-28.9-236.2-86.6
            s-84.2-136.1-84.2-235c0-46.6,6.9-89.8,20.8-129.6c13.8-39.8,34-74,60.6-102.5s59.3-50.3,98.1-65.5s82-22.8,129.4-22.8
            c61.6,0,114.5,13,158.6,39s77.1,59.7,99.1,101c22,41.3,32.9,83.3,32.9,126.1c0,39.7-11.4,65.5-34.1,77.2
            S1684.1,991.5,1642.9,991.5z M1334.5,901.5h285.9c-3.9-53.8-18.4-94.1-43.6-120.9c-25.2-26.7-58.4-40.1-99.6-40.1
            c-39.3,0-71.5,13.6-96.8,40.7S1339.8,848.4,1334.5,901.5z"/>
        <path fill="#FFFFFF" d="M1979.1,487.5v240.6c29.6-30.9,59.8-54.5,90.6-70.9s68.9-24.6,114.3-24.6c52.3,0,98.2,12.4,137.7,37.3
            s70,60.8,91.8,108s32.6,103.1,32.6,167.8c0,47.8-6.1,91.6-18.2,131.4s-29.7,74.4-52.8,103.7s-51.1,51.9-84,67.9s-69.2,24-108.8,24
            c-24.2,0-47-2.9-68.4-8.7s-39.5-13.4-54.5-22.8c-15-9.4-27.8-19.2-38.4-29.2c-10.6-10-24.5-25.1-41.8-45.1v15.6
            c0,29.7-7.1,52.2-21.4,67.4c-14.2,15.2-32.3,22.8-54.3,22.8c-22.3,0-40.1-7.6-53.4-22.8s-19.9-37.6-19.9-67.2v-688
            c0-31.9,6.4-56.1,19.3-72.4c12.9-16.3,30.9-24.5,54-24.5c24.2,0,42.9,7.8,56,23.4S1979.1,458.7,1979.1,487.5z M1986.6,955.5
            c0,62.7,14.3,110.9,43,144.5s66.3,50.5,112.9,50.5c39.7,0,73.8-17.2,102.5-51.6c28.7-34.4,43-83.8,43-148
            c0-41.5-6-77.3-17.9-107.3s-28.9-53.2-50.8-69.5c-22-16.3-47.6-24.5-76.8-24.5c-30,0-56.8,8.2-80.3,24.5c-23.5,16.3-42,40-55.5,71
            S1986.6,912.8,1986.6,955.5z"/>
        <path fill="#FFFFFF" d="M782.6,1865.3v-406.9c0-34.6,7.8-60.6,23.3-77.9s36-26,61.3-26c26.5,0,47.5,8.7,63,26
            c15.5,17.3,23.3,43.3,23.3,77.9v416.3c0,47.3,5.3,86.9,15.9,118.7c10.6,31.8,29.4,56.4,56.5,73.9c27,17.5,64.8,26.3,113.5,26.3
            c67.2,0,114.6-17.8,142.4-53.4c27.8-35.6,41.7-89.6,41.7-161.9v-419.7c0-35,7.7-61.1,23-78.2c15.3-17.1,35.9-25.7,61.6-25.7
            s46.5,8.6,62.5,25.7c15.9,17.1,23.9,43.2,23.9,78.2v407c0,66.2-6.4,121.4-19.3,165.7c-12.9,44.3-37.1,83.1-72.8,116.6
            c-30.8,28.4-66.6,49.2-107.5,62.2c-40.8,13.1-88.6,19.6-143.3,19.6c-65.1,0-121.1-7-168.1-21.1c-47-14-85.3-35.8-115-65.2
            s-51.4-67.1-65.3-113.1C789.5,1984.1,782.6,1929.2,782.6,1865.3z"/>
        <path fill="#FFFFFF" d="M1630.6,2125v-666.6c0-34.6,7.9-60.6,23.6-77.9c15.7-17.3,36.1-26,61-26c25.7,0,46.5,8.6,62.5,25.7
            c15.9,17.1,23.9,43.2,23.9,78.2V2125c0,35-8,61.2-23.9,78.5c-15.9,17.3-36.8,26-62.5,26c-24.6,0-44.8-8.8-60.8-26.2
            C1638.6,2185.8,1630.6,2159.7,1630.6,2125z"/>
    </g>
</g>
</svg>
